<?xml version="1.0" standalone="no"?>
<!DOCTYPE svg PUBLIC "-//W3C//DTD SVG 20010904//EN"
 "http://www.w3.org/TR/2001/REC-SVG-20010904/DTD/svg10.dtd">
<svg version="1.0" xmlns="http://www.w3.org/2000/svg"
 width="356.000000pt" height="356.000000pt" viewBox="0 0 356.000000 356.000000"
 preserveAspectRatio="xMidYMid meet">
<metadata>
Created by potrace 1.11, written by Peter Selinger 2001-2013
</metadata>
<g transform="translate(0.000000,356.000000) scale(0.100000,-0.100000)"
fill="#000000" stroke="none">
<path d="M1569 3536 c-2 -2 -40 -6 -84 -10 -44 -4 -100 -11 -125 -16 -25 -6
-56 -13 -70 -16 -14 -2 -63 -17 -110 -31 -47 -15 -89 -27 -95 -28 -5 -2 -48
-20 -95 -41 -263 -121 -467 -282 -642 -507 -59 -77 -168 -247 -168 -262 0 -3
-14 -33 -30 -67 -30 -61 -93 -245 -105 -304 -31 -156 -38 -215 -39 -354 -1
-178 6 -253 33 -377 54 -246 171 -492 330 -695 63 -80 237 -242 332 -311 107
-77 315 -182 436 -222 45 -14 85 -26 88 -26 2 0 19 -5 37 -10 18 -5 44 -12 58
-14 14 -2 63 -11 110 -19 161 -27 478 -13 625 28 6 1 30 8 55 15 101 28 181
59 288 112 l113 55 167 -74 c92 -40 182 -80 199 -88 323 -148 554 -246 584
-247 42 -2 67 15 86 60 13 33 13 34 -23 118 -7 17 -27 62 -44 100 -18 39 -68
151 -112 250 -44 99 -90 200 -101 225 -11 25 -46 103 -78 174 l-57 130 29 58
c63 126 124 310 145 439 3 24 9 55 11 69 12 63 10 371 -2 450 -86 562 -423
1027 -919 1269 -84 41 -285 113 -346 125 -19 3 -46 8 -60 11 -88 18 -166 26
-284 30 -74 2 -135 2 -137 1z m105 -756 c3 -19 8 -69 12 -110 4 -41 8 -82 10
-90 1 -8 3 -22 3 -31 1 -12 19 -19 72 -28 273 -45 497 -275 525 -539 l6 -54
-63 6 c-53 5 -249 13 -469 20 l-45 1 -1 105 c-1 58 -5 170 -9 250 -11 238 -8
225 -53 225 -20 1 -27 6 -26 20 3 46 15 172 19 190 2 11 4 33 4 49 1 37 7 31
15 -14z m-50 -337 c-9 -114 -11 -179 -13 -349 l-1 -142 -97 -1 c-139 -3 -283
-8 -392 -16 l-93 -7 6 52 c31 250 241 481 488 535 115 25 110 29 102 -72z
m-602 -529 c4 -5 6 -19 4 -30 -2 -15 -11 -19 -37 -18 -33 0 -155 11 -212 19
-42 5 -46 15 -6 16 19 0 41 2 49 3 8 2 44 6 80 10 35 4 66 8 67 10 7 7 49 0
55 -10z m1403 1 c44 -4 89 -9 100 -11 11 -1 31 -3 44 -3 13 -1 22 -3 20 -5 -7
-8 -60 -15 -221 -31 l-58 -6 0 35 c0 28 4 34 18 32 9 -2 53 -7 97 -11z m-1175
-71 c74 -3 182 -7 240 -9 58 -2 108 -3 111 -4 4 -1 7 -49 8 -108 1 -100 3
-150 16 -382 l5 -84 -61 7 c-56 7 -123 27 -189 58 -49 24 -157 108 -195 154
-80 94 -155 267 -155 356 0 24 3 26 43 22 23 -2 103 -6 177 -10z m1050 -8 c0
-47 -21 -130 -47 -190 -84 -190 -234 -320 -429 -370 -34 -9 -76 -16 -94 -16
-30 0 -31 2 -26 33 6 37 18 308 19 445 1 50 4 92 7 93 3 1 50 2 105 4 125 3
419 16 422 19 1 1 11 2 23 3 15 1 20 -4 20 -21z m-604 -625 c-3 -20 -8 -69
-11 -108 -4 -40 -8 -81 -10 -90 -2 -10 -4 -24 -4 -32 -2 -38 -11 5 -21 104 -6
61 -13 121 -15 135 -5 29 7 39 41 32 22 -4 24 -8 20 -41z"/>
</g>
</svg>
