<svg xmlns="http://www.w3.org/2000/svg" width="130.783" height="130.782" viewBox="0 0 130.783 130.782">
  <g id="Icon_ionic-ios-chatbubbles" data-name="Icon ionic-ios-chatbubbles" transform="translate(-3.375 -3.375)">
    <path id="Path_117" data-name="Path 117" d="M107.113,89.075a7.617,7.617,0,0,1,1.037-3.835,10.589,10.589,0,0,1,.66-.975,50.94,50.94,0,0,0,8.677-28.389c.094-28.986-24.365-52.5-54.608-52.5C36.5,3.375,14.5,21.326,9.341,45.156A50.521,50.521,0,0,0,8.177,55.908,53.329,53.329,0,0,0,61.936,109.07c4.81,0,11.286-1.446,14.839-2.421s7.074-2.264,7.985-2.609a8.311,8.311,0,0,1,2.924-.534,8.173,8.173,0,0,1,3.175.629l17.825,6.319a4.251,4.251,0,0,0,1.226.314,2.5,2.5,0,0,0,2.515-2.515,4.039,4.039,0,0,0-.157-.849Z" transform="translate(16.67)" fill="#15305d"/>
    <path id="Path_118" data-name="Path 118" d="M88.415,78.608c-1.132.314-2.578.66-4.15,1.006a58.023,58.023,0,0,1-10.689,1.415A53.329,53.329,0,0,1,19.817,27.867a59.437,59.437,0,0,1,.472-6.728c.189-1.352.409-2.7.723-4.024.314-1.415.692-2.829,1.1-4.213L19.6,15.134A46.786,46.786,0,0,0,3.375,50.314a46.264,46.264,0,0,0,7.8,25.779c.723,1.1,1.132,1.949,1.006,2.515S8.437,98.1,8.437,98.1a2.522,2.522,0,0,0,.849,2.421,2.561,2.561,0,0,0,1.6.566,2.255,2.255,0,0,0,.912-.189L29.437,93.95a4.913,4.913,0,0,1,3.773.063,52.911,52.911,0,0,0,19.083,3.773A49.375,49.375,0,0,0,90.05,80.463s1.006-1.383,2.169-3.018C91.056,77.853,89.735,78.262,88.415,78.608Z" transform="translate(0 33.071)" fill="#15305d"/>
  </g>
</svg>
