<svg xmlns="http://www.w3.org/2000/svg" width="217.638" height="130.63" viewBox="0 0 217.638 130.63">
  <path id="Icon_awesome-handshake" data-name="Icon awesome-handshake" d="M147.824,4.5H118.613a10.878,10.878,0,0,0-7.345,2.856L77.84,37.962c-.034.034-.068.1-.1.136a13.527,13.527,0,0,0-.714,19.043c4.319,4.727,13.4,5.985,19.077.918.034-.034.1-.034.136-.068L123.407,33.1a5.44,5.44,0,0,1,7.345,8.025l-8.876,8.127L171.39,89.447a24.5,24.5,0,0,1,2.686,2.618v-65.8L155.509,7.7a10.8,10.8,0,0,0-7.685-3.2Zm37.168,21.832v76.139a10.87,10.87,0,0,0,10.882,10.882h21.764V26.332Zm16.323,76.139a5.441,5.441,0,1,1,5.441-5.441A5.457,5.457,0,0,1,201.315,102.471ZM0,113.319H21.764a10.87,10.87,0,0,0,10.882-10.882V26.332H0Zm16.323-21.73a5.441,5.441,0,1,1-5.441,5.441A5.457,5.457,0,0,1,16.323,91.589Zm148.232,6.325L113.784,56.7l-10.2,9.352A24.477,24.477,0,0,1,70.494,29.97L98.311,4.5h-28.5a10.862,10.862,0,0,0-7.685,3.2l-18.6,18.567V102.4h6.223l30.775,27.851a21.759,21.759,0,0,0,30.605-3.163l.068-.068,6.087,5.271a12.637,12.637,0,0,0,17.785-1.836l10.678-13.126,1.836,1.5a10.865,10.865,0,0,0,15.3-1.6l3.231-3.979a10.9,10.9,0,0,0-1.564-15.337Z" transform="translate(0 -4.5)" fill="#15305d"/>
</svg>
