<svg xmlns="http://www.w3.org/2000/svg" width="130.315" height="130.315" viewBox="0 0 130.315 130.315">
  <path id="Icon_awesome-phone-alt" data-name="Icon awesome-phone-alt" d="M126.6,92.086,98.091,79.869a6.109,6.109,0,0,0-7.127,1.756L78.34,97.049a94.342,94.342,0,0,1-45.1-45.1L48.665,39.325A6.093,6.093,0,0,0,50.421,32.2L38.2,3.692a6.149,6.149,0,0,0-7-3.538L4.734,6.263A6.109,6.109,0,0,0,0,12.216a118.086,118.086,0,0,0,118.1,118.1,6.109,6.109,0,0,0,5.956-4.734l6.109-26.471A6.182,6.182,0,0,0,126.6,92.086Z" transform="translate(0 0)" fill="#15305d"/>
</svg>
