<svg xmlns="http://www.w3.org/2000/svg" width="1207.052" height="1207.077" viewBox="0 0 1207.052 1207.077">
  <g id="Group_8" data-name="Group 8" transform="translate(1344.936 1428.533) rotate(180)" opacity="0.2">
    <path id="Path_2" data-name="Path 2" d="M852.213,662.661q-132.783,7.223-265.541,7.73-.419,132.745-7.577,265.389c-2.053,34.264-4.232,68.527-6.868,102.79,206.493-10.8,371.981-176.284,382.93-382.752C920.892,658.58,886.476,660.76,852.213,662.661Zm-338.148,7.577q-132.555-.646-265.39-7.577c-34.264-2.053-68.679-4.233-102.943-6.843,10.923,206.468,176.437,371.956,382.9,382.9-2.763-34.264-4.967-68.679-6.843-102.943Q514.571,803,514.064,670.238ZM572.1,229.3c2.61,34.263,4.815,68.679,6.843,102.942q7.223,132.784,7.73,265.542,132.783.418,265.541,7.577c34.264,2.028,68.528,4.232,102.791,6.843C944.207,405.736,778.567,240.222,572.1,229.3ZM145.732,612.355c34.264-2.636,68.679-4.815,102.943-6.842,88.5-4.815,177.171-7.3,265.516-7.73q.684-132.784,7.6-265.542c2.027-34.263,4.232-68.679,6.843-102.942C322.169,240.222,156.655,405.887,145.732,612.355Z" transform="translate(191.042 190.92)" fill="#003d84"/>
    <path id="Path_3" data-name="Path 3" d="M336.191,266.133c0,7.3.127,14.6.583,21.744-66.347-5.119-132.568-11.683-198.89-21.744,66.322-10.061,132.543-16.625,198.89-21.719C336.318,251.561,336.191,258.859,336.191,266.133Z" transform="translate(0 558.862)" fill="#003d84"/>
    <path id="Path_4" data-name="Path 4" d="M177.817,288.023c.431-7.147.583-14.446.583-21.744,0-7.274-.152-14.572-.735-21.871,66.348,5.119,132.7,11.809,198.89,21.871C310.36,276.34,244.165,283.056,177.817,288.023Z" transform="translate(968.38 558.716)" fill="#003d84"/>
    <path id="Path_5" data-name="Path 5" d="M204.431,261.232c-5.094,66.348-11.81,132.695-21.871,199.043-10.061-66.348-16.752-132.543-21.719-198.89,7.147.43,14.445.582,21.719.582C189.858,261.967,197.157,261.815,204.431,261.232Z" transform="translate(558.837 968.259)" fill="#003d84"/>
    <path id="Path_6" data-name="Path 6" d="M204.3,420.22c-7.147-.431-14.446-.583-21.744-.583-7.274,0-14.572.152-21.719.583,5.094-66.2,11.658-132.416,21.719-198.764C192.621,287.8,199.337,354.024,204.3,420.22Z" transform="translate(558.837 0)" fill="#003d84"/>
  </g>
</svg>
