<svg xmlns="http://www.w3.org/2000/svg" width="123" height="123" viewBox="0 0 123 123">
  <g id="Group_11" data-name="Group 11" transform="translate(-944 -1777)">
    <g id="Ellipse_1" data-name="Ellipse 1" transform="translate(944 1777)" fill="none" stroke="#15305d" stroke-width="5">
      <circle cx="61.5" cy="61.5" r="61.5" stroke="none"/>
      <circle cx="61.5" cy="61.5" r="59" fill="none"/>
    </g>
    <g id="Icon_ionic-ios-chatbubbles" data-name="Icon ionic-ios-chatbubbles" transform="translate(969.87 1802.87)">
      <path id="Path_110" data-name="Path 110" d="M57.167,45.811a3.771,3.771,0,0,1,.514-1.9,5.241,5.241,0,0,1,.327-.483,25.224,25.224,0,0,0,4.3-14.057c.047-14.353-12.065-26-27.04-26-13.061,0-23.958,8.889-26.511,20.689a25.017,25.017,0,0,0-.576,5.324A26.407,26.407,0,0,0,34.8,55.712a32.06,32.06,0,0,0,7.348-1.2c1.759-.483,3.5-1.121,3.954-1.292a4.116,4.116,0,0,1,1.448-.265,4.047,4.047,0,0,1,1.572.311L57.946,56.4a2.1,2.1,0,0,0,.607.156A1.239,1.239,0,0,0,59.8,55.307a2,2,0,0,0-.078-.42Z" transform="translate(5.83)" fill="#15305d"/>
      <path id="Path_111" data-name="Path 111" d="M45.484,45.438c-.56.156-1.277.327-2.055.5a28.731,28.731,0,0,1-5.293.7,26.407,26.407,0,0,1-26.62-26.324,29.431,29.431,0,0,1,.234-3.331c.093-.669.2-1.339.358-1.993.156-.7.342-1.4.545-2.086l-1.245,1.105a23.167,23.167,0,0,0-8.033,17.42A22.909,22.909,0,0,0,7.236,44.192c.358.545.56.965.5,1.245s-1.852,9.652-1.852,9.652a1.249,1.249,0,0,0,.42,1.2,1.268,1.268,0,0,0,.794.28,1.117,1.117,0,0,0,.451-.093l8.733-3.44a2.433,2.433,0,0,1,1.868.031A26.2,26.2,0,0,0,27.6,54.934a24.449,24.449,0,0,0,18.7-8.578s.5-.685,1.074-1.494C46.792,45.064,46.138,45.267,45.484,45.438Z" transform="translate(0 11.566)" fill="#15305d"/>
    </g>
  </g>
</svg>
